# xmcd CD database file
#
# Track frame offsets:
#	150
#	12358
#	23226
#	35052
#	47188
#	58928
#	72095
#	85137
#	98830
#	110857
#	122248
#	133768
#	147680
#	161777
#	175484
#	189520
#	202177
#	213587
#	231974
#	241451
#
# Disc length: 3429 seconds
#
# Revision: 2
# Processed by: cddbd v1.5.1PL2 Copyright (c) Steve Scherf et al.
# Submitted via: CDex 1.51
#
DISCID=3f0d6314
DTITLE=Hank Snow - The Singing Ranger, Vol.3 (03)
DYEAR=1992
DGENRE=Country
TTITLE0=The Man Who Robbed The Bank At  Santa Fe
TTITLE1=The Man Behind The Gun
TTITLE2=The Restless Kind
TTITLE3=Call Of The Wild
TTITLE4=(Town Of) Laredo
TTITLE5=Way Out There
TTITLE6=Patanio, The Pride Of The Plains
TTITLE7=The Queen Of Draw Poker Town
TTITLE8=On The Rythm Range
TTITLE9=Chant Of The Wanderer
TTITLE10=The Wayward Wind
TTITLE11=Following The Sun All Day
TTITLE12=The Texas Plains
TTITLE13=Patanio, The Pride Of The Plains
TTITLE14=Teardrops In My Heart
TTITLE15=Tumbling Tumbleweed
TTITLE16=Heart Break Trail
TTITLE17=Cool Water
TTITLE18=Ridin' Home
TTITLE19=At The Rainbow's End
EXTD=YEAR: 1992
EXTT0=
EXTT1=
EXTT2=
EXTT3=
EXTT4=
EXTT5=
EXTT6=
EXTT7=
EXTT8=
EXTT9=
EXTT10=
EXTT11=
EXTT12=
EXTT13=
EXTT14=
EXTT15=
EXTT16=
EXTT17=
EXTT18=
EXTT19=
PLAYORDER=
